<svg width="720" height="460" viewBox="0 0 720 460" fill="none" xmlns="http://www.w3.org/2000/svg">
<g clip-path="url(#clip0_1332_54759)">
<rect width="720" height="460" fill="white"/>
<path d="M83.2163 331.79C74.8109 334.112 72.9308 335.993 70.6081 344.398C68.2855 335.993 66.4054 334.112 58 331.79C66.4054 329.467 68.2855 327.587 70.6081 319.182C72.9308 327.587 74.8109 329.467 83.2163 331.79Z" fill="#3980FD"/>
<path d="M110.68 73.0742C93.1141 77.9258 89.1829 81.857 84.3398 99.4141C79.4882 81.8484 75.557 77.9172 58 73.0742C75.5656 68.2226 79.4968 64.2914 84.3398 46.7344C89.1915 64.3 93.1227 68.2312 110.68 73.0742Z" fill="#FF6600"/>
<path d="M191.633 191.443C179.508 194.794 176.796 197.506 173.445 209.631C170.095 197.506 167.383 194.794 155.258 191.443C167.383 188.093 170.095 185.381 173.445 173.256C176.796 185.381 179.508 188.093 191.633 191.443Z" fill="#3980FD"/>
<g clip-path="url(#clip1_1332_54759)">
<path d="M222.217 91.6918C207.294 95.8195 203.953 99.1671 199.833 114.118C195.714 99.1671 192.372 95.8195 177.45 91.6918C192.372 87.564 195.714 84.2164 199.833 69.2656C203.953 84.2164 207.294 87.564 222.217 91.6918Z" fill="#3980FD"/>
<path d="M199.834 319.153C180.191 324.586 175.795 328.998 170.372 348.672C164.95 328.99 160.547 324.586 140.91 319.153C160.554 313.721 164.95 309.309 170.372 289.635C175.795 309.316 180.198 313.721 199.834 319.153Z" fill="#FA5F00"/>
<path d="M623.554 188.243C603.91 193.676 599.514 198.087 594.092 217.762C588.67 198.08 584.267 193.676 564.63 188.243C584.274 182.81 588.67 178.399 594.092 158.725C599.514 178.406 603.917 182.81 623.554 188.243Z" fill="#3980FD"/>
<path d="M278.689 115.58C270.648 120.318 275.086 134.453 275.532 158.702C276.396 205.363 261.042 211.888 266.847 244.946C268.673 255.364 272.396 276.542 289.739 294.117C321.75 326.551 320.179 321.605 385.411 326.231C391.917 325.103 442.231 305.664 453.161 263.102C453.911 260.173 459.914 235.243 445.268 216.2C442.21 212.228 434.714 203.902 369.482 184.426C341.004 175.922 334.315 175.086 327.639 167.029C315.959 152.922 322.67 138.829 308.689 125.418C300.329 117.396 286.186 111.169 278.689 115.58Z" fill="#FCAF81"/>
<path d="M454.258 285.748V68.0115C454.258 56.2605 444.75 46.7344 433.021 46.7344L317.637 46.7344C305.908 46.7344 296.4 56.2605 296.4 68.0115V285.748C296.4 297.499 305.908 307.025 317.637 307.025H433.021C444.75 307.025 454.258 297.499 454.258 285.748Z" fill="#09286C"/>
<path d="M434.437 52.4082H316.221C308.402 52.4082 302.063 58.7589 302.063 66.593V287.166C302.063 295 308.402 301.351 316.221 301.351H434.437C442.256 301.351 448.595 295 448.595 287.166V66.593C448.595 58.7589 442.256 52.4082 434.437 52.4082Z" fill="#F4F6FB"/>
<path d="M351.481 169.434H312.109C310.959 169.434 310.027 170.367 310.027 171.519V176.569C310.027 177.72 310.959 178.654 312.109 178.654H351.481C352.63 178.654 353.562 177.72 353.562 176.569V171.519C353.562 170.367 352.63 169.434 351.481 169.434Z" fill="#FA5F00"/>
<path d="M369.928 244.613H313.248C311.469 244.613 310.027 246.058 310.027 247.84V256.635C310.027 258.417 311.469 259.862 313.248 259.862H369.928C371.707 259.862 373.149 258.417 373.149 256.635V247.84C373.149 246.058 371.707 244.613 369.928 244.613Z" fill="white" stroke="#09286C" stroke-miterlimit="10"/>
<path d="M437.63 244.613H380.95C379.172 244.613 377.729 246.058 377.729 247.84V256.635C377.729 258.417 379.172 259.862 380.95 259.862H437.63C439.409 259.862 440.851 258.417 440.851 256.635V247.84C440.851 246.058 439.409 244.613 437.63 244.613Z" fill="white" stroke="#09286C" stroke-miterlimit="10"/>
<path d="M351.481 229.01H312.109C310.959 229.01 310.027 229.943 310.027 231.095V236.145C310.027 237.296 310.959 238.23 312.109 238.23H351.481C352.63 238.23 353.562 237.296 353.562 236.145V231.095C353.562 229.943 352.63 229.01 351.481 229.01Z" fill="#FA5F00"/>
<path d="M60.7188 568.735C92.7716 557.479 166.363 526.67 224.947 451.001C266.188 397.737 282.838 344.395 290.072 312.699C334.435 315.302 378.791 317.898 423.154 320.501C425.32 347.743 425.363 392.155 408.997 443.199C388.758 506.3 353.569 547.933 333.253 568.735H60.7188Z" fill="#09286C"/>
<path d="M403.644 58.791H347.013C344.863 58.791 343.12 60.5375 343.12 62.6918C343.12 64.8462 344.863 66.5926 347.013 66.5926H403.644C405.794 66.5926 407.537 64.8462 407.537 62.6918C407.537 60.5375 405.794 58.791 403.644 58.791Z" fill="#09286C"/>
<path d="M434.395 128.297H316.264C312.819 128.297 310.027 131.094 310.027 134.545V149.709C310.027 153.16 312.819 155.957 316.264 155.957H434.395C437.839 155.957 440.632 153.16 440.632 149.709V134.545C440.632 131.094 437.839 128.297 434.395 128.297Z" fill="white" stroke="#09286C" stroke-miterlimit="10"/>
<path d="M434.395 185.035H316.264C312.819 185.035 310.027 187.833 310.027 191.284V206.447C310.027 209.898 312.819 212.695 316.264 212.695H434.395C437.839 212.695 440.632 209.898 440.632 206.447V191.284C440.632 187.833 437.839 185.035 434.395 185.035Z" fill="white" stroke="#09286C" stroke-miterlimit="10"/>
<path d="M448.276 113.26C436.822 120.97 427.578 127.197 427.747 136.665C427.847 141.942 430.876 149.176 437.658 151.559C443.052 153.46 449.38 151.779 453.939 147.304C453.09 150.807 453.394 151.964 453.939 152.269C456.94 153.964 477.285 135.687 473.052 120.353C471.594 115.069 466.957 109.196 461.018 108.296C459.007 107.991 455.921 108.111 448.276 113.26Z" fill="#FCAF81"/>
<path d="M458.788 213.596C448.184 220.738 439.626 226.497 439.781 235.263C439.88 240.54 443.278 247.044 448.956 249.051C451.483 249.944 453.847 249.724 455.355 249.434C454.328 251.654 454.258 252.654 454.647 252.98C457.132 255.079 485.128 235.639 481.723 220.163C480.598 215.043 475.905 209.808 470.581 209C468.72 208.716 465.86 208.83 458.788 213.596Z" fill="#FCAF81"/>
<path d="M460.31 145.885C443.626 157.715 430.728 166.872 432.703 177.092C433.814 182.851 439.06 185.908 439.782 186.312C446.924 190.333 457.493 188.007 465.973 179.929C465.124 183.432 465.428 184.588 465.973 184.893C468.975 186.589 489.319 168.311 485.086 152.978C483.628 147.694 478.991 141.821 473.052 140.921C468.911 140.296 465.407 142.275 460.31 145.885Z" fill="#FCAF81"/>
<path d="M462.433 177.801C445.749 189.631 432.851 198.788 434.826 209.008C435.937 214.767 441.183 217.824 441.905 218.228C449.047 222.249 459.616 219.923 468.096 211.845C467.247 215.348 467.551 216.504 468.096 216.809C471.098 218.505 491.442 200.227 487.209 184.894C485.751 179.61 481.114 173.737 475.175 172.837C471.034 172.213 467.53 174.191 462.433 177.801Z" fill="#FCAF81"/>
<path d="M351.481 112.693H312.109C310.959 112.693 310.027 113.627 310.027 114.779V119.828C310.027 120.98 310.959 121.913 312.109 121.913H351.481C352.63 121.913 353.562 120.98 353.562 119.828V114.779C353.562 113.627 352.63 112.693 351.481 112.693Z" fill="#FA5F00"/>
<path d="M406.893 82.9062H346.815C345.654 82.9062 344.713 83.8493 344.713 85.0127V87.183C344.713 88.3463 345.654 89.2894 346.815 89.2894H406.893C408.054 89.2894 408.996 88.3463 408.996 87.183V85.0127C408.996 83.8493 408.054 82.9062 406.893 82.9062Z" fill="#09286C"/>
</g>
</g>
<defs>
<clipPath id="clip0_1332_54759">
<rect width="720" height="460" fill="white"/>
</clipPath>
<clipPath id="clip1_1332_54759">
<rect width="604" height="522" fill="white" transform="translate(58 46.7344)"/>
</clipPath>
</defs>
</svg>
